# xmcd CD database file
#
# Track frame offsets:
#	150
#	60723
#	79723
#	108710
#	144092
#	169841
#	200111
#
# Disc length: 3077 seconds
#
# Revision: 0
# Processed by: cddbd v1.5.2PL0 Copyright (c) Steve Scherf et al.
# Submitted via: CDex 1.70beta2
#
DISCID=5f0c0307
DTITLE=Antonio Figura - Strong Place
DYEAR=2010
DGENRE=Jazz
TTITLE0=Intro - Promenade (On a Dotted Line)
TTITLE1=Strong Place
TTITLE2=Coincidenze
TTITLE3=Thapsos
TTITLE4=Mercy Street
TTITLE5=Buenos Aires 1952
TTITLE6=Josephine
EXTD=YEAR: 2010
EXTT0=
EXTT1=
EXTT2=
EXTT3=
EXTT4=
EXTT5=
EXTT6=
PLAYORDER=
